<svg width="315" height="330" viewBox="0 0 315 330" fill="none" xmlns="http://www.w3.org/2000/svg">
<g clip-path="url(#clip0_11287_24635)">
<rect width="315" height="330" rx="30" fill="url(#paint0_linear_11287_24635)"/>
<g clip-path="url(#clip1_11287_24635)">
<path opacity="0.07" fill-rule="evenodd" clip-rule="evenodd" d="M46.1798 236C152.671 236 239 149.671 239 43.1797C239 -63.312 152.671 -149.641 46.1798 -149.641C-60.3119 -149.641 -146.641 -63.312 -146.641 43.1797C-146.641 149.671 -60.3119 236 46.1798 236ZM46.183 111.951C84.1627 111.951 114.951 81.1628 114.951 43.183C114.951 5.20325 84.1627 -25.5854 46.183 -25.5854C8.2032 -25.5854 -22.5855 5.20325 -22.5855 43.183C-22.5855 81.1628 8.2032 111.951 46.183 111.951Z" fill="#624CEF"/>
<path opacity="0.08" fill-rule="evenodd" clip-rule="evenodd" d="M171.084 304.341C163.367 312.058 163.367 324.568 171.084 332.285L291.239 452.44C298.956 460.157 311.466 460.157 319.183 452.44L439.338 332.285C447.055 324.568 447.055 312.058 439.338 304.341L319.183 184.186C311.466 176.469 298.956 176.469 291.239 184.186L171.084 304.341ZM305.211 244.634L231.532 318.313L305.211 391.992L378.89 318.313L305.211 244.634Z" fill="white"/>
<path opacity="0.08" fill-rule="evenodd" clip-rule="evenodd" d="M-58.4112 163.794C-59.2886 163.794 -60 164.505 -60 165.383V299.243C-60 300.121 -59.2886 300.832 -58.4111 300.832H74.4111C75.2887 300.832 76 300.121 76 299.243V165.383C76 164.505 75.2886 163.794 74.4111 163.794H-58.4112ZM32.989 207.11H-17.1675V257.266H32.989V207.11Z" fill="white"/>
<g opacity="0.1">
<mask id="path-5-outside-1_11287_24635" maskUnits="userSpaceOnUse" x="134.157" y="203" width="18" height="18" fill="black">
<rect fill="white" x="134.157" y="203" width="18" height="18"/>
<path fill-rule="evenodd" clip-rule="evenodd" d="M143.955 204.8C143.955 204.358 143.597 204 143.155 204C142.714 204 142.355 204.358 142.355 204.8V211.2H135.957C135.515 211.2 135.157 211.558 135.157 212C135.157 212.442 135.515 212.8 135.957 212.8H142.355V219.2C142.355 219.642 142.714 220 143.155 220C143.597 220 143.955 219.642 143.955 219.2V212.8H150.357C150.799 212.8 151.157 212.442 151.157 212C151.157 211.558 150.799 211.2 150.357 211.2H143.955V204.8Z"/>
</mask>
<path fill-rule="evenodd" clip-rule="evenodd" d="M143.955 204.8C143.955 204.358 143.597 204 143.155 204C142.714 204 142.355 204.358 142.355 204.8V211.2H135.957C135.515 211.2 135.157 211.558 135.157 212C135.157 212.442 135.515 212.8 135.957 212.8H142.355V219.2C142.355 219.642 142.714 220 143.155 220C143.597 220 143.955 219.642 143.955 219.2V212.8H150.357C150.799 212.8 151.157 212.442 151.157 212C151.157 211.558 150.799 211.2 150.357 211.2H143.955V204.8Z" fill="white"/>
<path d="M142.355 211.2V211.7H142.855V211.2H142.355ZM142.355 212.8H142.855V212.3H142.355V212.8ZM143.955 212.8V212.3H143.455V212.8H143.955ZM143.955 211.2H143.455V211.7H143.955V211.2ZM143.155 204.5C143.321 204.5 143.455 204.634 143.455 204.8H144.455C144.455 204.082 143.873 203.5 143.155 203.5V204.5ZM142.855 204.8C142.855 204.634 142.99 204.5 143.155 204.5V203.5C142.438 203.5 141.855 204.082 141.855 204.8H142.855ZM142.855 211.2V204.8H141.855V211.2H142.855ZM135.957 211.7H142.355V210.7H135.957V211.7ZM135.657 212C135.657 211.834 135.791 211.7 135.957 211.7V210.7C135.239 210.7 134.657 211.282 134.657 212H135.657ZM135.957 212.3C135.791 212.3 135.657 212.166 135.657 212H134.657C134.657 212.718 135.239 213.3 135.957 213.3V212.3ZM142.355 212.3H135.957V213.3H142.355V212.3ZM142.855 219.2V212.8H141.855V219.2H142.855ZM143.155 219.5C142.99 219.5 142.855 219.366 142.855 219.2H141.855C141.855 219.918 142.438 220.5 143.155 220.5V219.5ZM143.455 219.2C143.455 219.366 143.321 219.5 143.155 219.5V220.5C143.873 220.5 144.455 219.918 144.455 219.2H143.455ZM143.455 212.8V219.2H144.455V212.8H143.455ZM150.357 212.3H143.955V213.3H150.357V212.3ZM150.657 212C150.657 212.166 150.523 212.3 150.357 212.3V213.3C151.075 213.3 151.657 212.718 151.657 212H150.657ZM150.357 211.7C150.523 211.7 150.657 211.834 150.657 212H151.657C151.657 211.282 151.075 210.7 150.357 210.7V211.7ZM143.955 211.7H150.357V210.7H143.955V211.7ZM143.455 204.8V211.2H144.455V204.8H143.455Z" fill="white" mask="url(#path-5-outside-1_11287_24635)"/>
<mask id="path-7-outside-2_11287_24635" maskUnits="userSpaceOnUse" x="158.157" y="203" width="18" height="18" fill="black">
<rect fill="white" x="158.157" y="203" width="18" height="18"/>
<path fill-rule="evenodd" clip-rule="evenodd" d="M167.955 204.8C167.955 204.358 167.597 204 167.155 204C166.714 204 166.355 204.358 166.355 204.8V211.2H159.957C159.515 211.2 159.157 211.558 159.157 212C159.157 212.442 159.515 212.8 159.957 212.8H166.355V219.2C166.355 219.642 166.714 220 167.155 220C167.597 220 167.955 219.642 167.955 219.2V212.8H174.357C174.799 212.8 175.157 212.442 175.157 212C175.157 211.558 174.799 211.2 174.357 211.2H167.955V204.8Z"/>
</mask>
<path fill-rule="evenodd" clip-rule="evenodd" d="M167.955 204.8C167.955 204.358 167.597 204 167.155 204C166.714 204 166.355 204.358 166.355 204.8V211.2H159.957C159.515 211.2 159.157 211.558 159.157 212C159.157 212.442 159.515 212.8 159.957 212.8H166.355V219.2C166.355 219.642 166.714 220 167.155 220C167.597 220 167.955 219.642 167.955 219.2V212.8H174.357C174.799 212.8 175.157 212.442 175.157 212C175.157 211.558 174.799 211.2 174.357 211.2H167.955V204.8Z" fill="white"/>
<path d="M166.355 211.2V211.7H166.855V211.2H166.355ZM166.355 212.8H166.855V212.3H166.355V212.8ZM167.955 212.8V212.3H167.455V212.8H167.955ZM167.955 211.2H167.455V211.7H167.955V211.2ZM167.155 204.5C167.321 204.5 167.455 204.634 167.455 204.8H168.455C168.455 204.082 167.873 203.5 167.155 203.5V204.5ZM166.855 204.8C166.855 204.634 166.99 204.5 167.155 204.5V203.5C166.438 203.5 165.855 204.082 165.855 204.8H166.855ZM166.855 211.2V204.8H165.855V211.2H166.855ZM159.957 211.7H166.355V210.7H159.957V211.7ZM159.657 212C159.657 211.834 159.791 211.7 159.957 211.7V210.7C159.239 210.7 158.657 211.282 158.657 212H159.657ZM159.957 212.3C159.791 212.3 159.657 212.166 159.657 212H158.657C158.657 212.718 159.239 213.3 159.957 213.3V212.3ZM166.355 212.3H159.957V213.3H166.355V212.3ZM166.855 219.2V212.8H165.855V219.2H166.855ZM167.155 219.5C166.99 219.5 166.855 219.366 166.855 219.2H165.855C165.855 219.918 166.438 220.5 167.155 220.5V219.5ZM167.455 219.2C167.455 219.366 167.321 219.5 167.155 219.5V220.5C167.873 220.5 168.455 219.918 168.455 219.2H167.455ZM167.455 212.8V219.2H168.455V212.8H167.455ZM174.357 212.3H167.955V213.3H174.357V212.3ZM174.657 212C174.657 212.166 174.523 212.3 174.357 212.3V213.3C175.075 213.3 175.657 212.718 175.657 212H174.657ZM174.357 211.7C174.523 211.7 174.657 211.834 174.657 212H175.657C175.657 211.282 175.075 210.7 174.357 210.7V211.7ZM167.955 211.7H174.357V210.7H167.955V211.7ZM167.455 204.8V211.2H168.455V204.8H167.455Z" fill="white" mask="url(#path-7-outside-2_11287_24635)"/>
<mask id="path-9-outside-3_11287_24635" maskUnits="userSpaceOnUse" x="182.157" y="203" width="18" height="18" fill="black">
<rect fill="white" x="182.157" y="203" width="18" height="18"/>
<path fill-rule="evenodd" clip-rule="evenodd" d="M191.955 204.8C191.955 204.358 191.597 204 191.155 204C190.714 204 190.355 204.358 190.355 204.8V211.2H183.957C183.515 211.2 183.157 211.558 183.157 212C183.157 212.442 183.515 212.8 183.957 212.8H190.355V219.2C190.355 219.642 190.714 220 191.155 220C191.597 220 191.955 219.642 191.955 219.2V212.8H198.357C198.799 212.8 199.157 212.442 199.157 212C199.157 211.558 198.799 211.2 198.357 211.2H191.955V204.8Z"/>
</mask>
<path fill-rule="evenodd" clip-rule="evenodd" d="M191.955 204.8C191.955 204.358 191.597 204 191.155 204C190.714 204 190.355 204.358 190.355 204.8V211.2H183.957C183.515 211.2 183.157 211.558 183.157 212C183.157 212.442 183.515 212.8 183.957 212.8H190.355V219.2C190.355 219.642 190.714 220 191.155 220C191.597 220 191.955 219.642 191.955 219.2V212.8H198.357C198.799 212.8 199.157 212.442 199.157 212C199.157 211.558 198.799 211.2 198.357 211.2H191.955V204.8Z" fill="white"/>
<path d="M190.355 211.2V211.7H190.855V211.2H190.355ZM190.355 212.8H190.855V212.3H190.355V212.8ZM191.955 212.8V212.3H191.455V212.8H191.955ZM191.955 211.2H191.455V211.7H191.955V211.2ZM191.155 204.5C191.321 204.5 191.455 204.634 191.455 204.8H192.455C192.455 204.082 191.873 203.5 191.155 203.5V204.5ZM190.855 204.8C190.855 204.634 190.99 204.5 191.155 204.5V203.5C190.438 203.5 189.855 204.082 189.855 204.8H190.855ZM190.855 211.2V204.8H189.855V211.2H190.855ZM183.957 211.7H190.355V210.7H183.957V211.7ZM183.657 212C183.657 211.834 183.791 211.7 183.957 211.7V210.7C183.239 210.7 182.657 211.282 182.657 212H183.657ZM183.957 212.3C183.791 212.3 183.657 212.166 183.657 212H182.657C182.657 212.718 183.239 213.3 183.957 213.3V212.3ZM190.355 212.3H183.957V213.3H190.355V212.3ZM190.855 219.2V212.8H189.855V219.2H190.855ZM191.155 219.5C190.99 219.5 190.855 219.366 190.855 219.2H189.855C189.855 219.918 190.438 220.5 191.155 220.5V219.5ZM191.455 219.2C191.455 219.366 191.321 219.5 191.155 219.5V220.5C191.873 220.5 192.455 219.918 192.455 219.2H191.455ZM191.455 212.8V219.2H192.455V212.8H191.455ZM198.357 212.3H191.955V213.3H198.357V212.3ZM198.657 212C198.657 212.166 198.523 212.3 198.357 212.3V213.3C199.075 213.3 199.657 212.718 199.657 212H198.657ZM198.357 211.7C198.523 211.7 198.657 211.834 198.657 212H199.657C199.657 211.282 199.075 210.7 198.357 210.7V211.7ZM191.955 211.7H198.357V210.7H191.955V211.7ZM191.455 204.8V211.2H192.455V204.8H191.455Z" fill="white" mask="url(#path-9-outside-3_11287_24635)"/>
<mask id="path-11-outside-4_11287_24635" maskUnits="userSpaceOnUse" x="206.157" y="203" width="18" height="18" fill="black">
<rect fill="white" x="206.157" y="203" width="18" height="18"/>
<path fill-rule="evenodd" clip-rule="evenodd" d="M215.955 204.8C215.955 204.358 215.597 204 215.155 204C214.714 204 214.355 204.358 214.355 204.8V211.2H207.957C207.515 211.2 207.157 211.558 207.157 212C207.157 212.442 207.515 212.8 207.957 212.8H214.355V219.2C214.355 219.642 214.714 220 215.155 220C215.597 220 215.955 219.642 215.955 219.2V212.8H222.357C222.799 212.8 223.157 212.442 223.157 212C223.157 211.558 222.799 211.2 222.357 211.2H215.955V204.8Z"/>
</mask>
<path fill-rule="evenodd" clip-rule="evenodd" d="M215.955 204.8C215.955 204.358 215.597 204 215.155 204C214.714 204 214.355 204.358 214.355 204.8V211.2H207.957C207.515 211.2 207.157 211.558 207.157 212C207.157 212.442 207.515 212.8 207.957 212.8H214.355V219.2C214.355 219.642 214.714 220 215.155 220C215.597 220 215.955 219.642 215.955 219.2V212.8H222.357C222.799 212.8 223.157 212.442 223.157 212C223.157 211.558 222.799 211.2 222.357 211.2H215.955V204.8Z" fill="white"/>
<path d="M214.355 211.2V211.7H214.855V211.2H214.355ZM214.355 212.8H214.855V212.3H214.355V212.8ZM215.955 212.8V212.3H215.455V212.8H215.955ZM215.955 211.2H215.455V211.7H215.955V211.2ZM215.155 204.5C215.321 204.5 215.455 204.634 215.455 204.8H216.455C216.455 204.082 215.873 203.5 215.155 203.5V204.5ZM214.855 204.8C214.855 204.634 214.99 204.5 215.155 204.5V203.5C214.438 203.5 213.855 204.082 213.855 204.8H214.855ZM214.855 211.2V204.8H213.855V211.2H214.855ZM207.957 211.7H214.355V210.7H207.957V211.7ZM207.657 212C207.657 211.834 207.791 211.7 207.957 211.7V210.7C207.239 210.7 206.657 211.282 206.657 212H207.657ZM207.957 212.3C207.791 212.3 207.657 212.166 207.657 212H206.657C206.657 212.718 207.239 213.3 207.957 213.3V212.3ZM214.355 212.3H207.957V213.3H214.355V212.3ZM214.855 219.2V212.8H213.855V219.2H214.855ZM215.155 219.5C214.99 219.5 214.855 219.366 214.855 219.2H213.855C213.855 219.918 214.438 220.5 215.155 220.5V219.5ZM215.455 219.2C215.455 219.366 215.321 219.5 215.155 219.5V220.5C215.873 220.5 216.455 219.918 216.455 219.2H215.455ZM215.455 212.8V219.2H216.455V212.8H215.455ZM222.357 212.3H215.955V213.3H222.357V212.3ZM222.657 212C222.657 212.166 222.523 212.3 222.357 212.3V213.3C223.075 213.3 223.657 212.718 223.657 212H222.657ZM222.357 211.7C222.523 211.7 222.657 211.834 222.657 212H223.657C223.657 211.282 223.075 210.7 222.357 210.7V211.7ZM215.955 211.7H222.357V210.7H215.955V211.7ZM215.455 204.8V211.2H216.455V204.8H215.455Z" fill="white" mask="url(#path-11-outside-4_11287_24635)"/>
<mask id="path-13-outside-5_11287_24635" maskUnits="userSpaceOnUse" x="230.157" y="203" width="18" height="18" fill="black">
<rect fill="white" x="230.157" y="203" width="18" height="18"/>
<path fill-rule="evenodd" clip-rule="evenodd" d="M239.955 204.8C239.955 204.358 239.597 204 239.155 204C238.714 204 238.355 204.358 238.355 204.8V211.2H231.957C231.515 211.2 231.157 211.558 231.157 212C231.157 212.442 231.515 212.8 231.957 212.8H238.355V219.2C238.355 219.642 238.714 220 239.155 220C239.597 220 239.955 219.642 239.955 219.2V212.8H246.357C246.799 212.8 247.157 212.442 247.157 212C247.157 211.558 246.799 211.2 246.357 211.2H239.955V204.8Z"/>
</mask>
<path fill-rule="evenodd" clip-rule="evenodd" d="M239.955 204.8C239.955 204.358 239.597 204 239.155 204C238.714 204 238.355 204.358 238.355 204.8V211.2H231.957C231.515 211.2 231.157 211.558 231.157 212C231.157 212.442 231.515 212.8 231.957 212.8H238.355V219.2C238.355 219.642 238.714 220 239.155 220C239.597 220 239.955 219.642 239.955 219.2V212.8H246.357C246.799 212.8 247.157 212.442 247.157 212C247.157 211.558 246.799 211.2 246.357 211.2H239.955V204.8Z" fill="white"/>
<path d="M238.355 211.2V211.7H238.855V211.2H238.355ZM238.355 212.8H238.855V212.3H238.355V212.8ZM239.955 212.8V212.3H239.455V212.8H239.955ZM239.955 211.2H239.455V211.7H239.955V211.2ZM239.155 204.5C239.321 204.5 239.455 204.634 239.455 204.8H240.455C240.455 204.082 239.873 203.5 239.155 203.5V204.5ZM238.855 204.8C238.855 204.634 238.99 204.5 239.155 204.5V203.5C238.438 203.5 237.855 204.082 237.855 204.8H238.855ZM238.855 211.2V204.8H237.855V211.2H238.855ZM231.957 211.7H238.355V210.7H231.957V211.7ZM231.657 212C231.657 211.834 231.791 211.7 231.957 211.7V210.7C231.239 210.7 230.657 211.282 230.657 212H231.657ZM231.957 212.3C231.791 212.3 231.657 212.166 231.657 212H230.657C230.657 212.718 231.239 213.3 231.957 213.3V212.3ZM238.355 212.3H231.957V213.3H238.355V212.3ZM238.855 219.2V212.8H237.855V219.2H238.855ZM239.155 219.5C238.99 219.5 238.855 219.366 238.855 219.2H237.855C237.855 219.918 238.438 220.5 239.155 220.5V219.5ZM239.455 219.2C239.455 219.366 239.321 219.5 239.155 219.5V220.5C239.873 220.5 240.455 219.918 240.455 219.2H239.455ZM239.455 212.8V219.2H240.455V212.8H239.455ZM246.357 212.3H239.955V213.3H246.357V212.3ZM246.657 212C246.657 212.166 246.523 212.3 246.357 212.3V213.3C247.075 213.3 247.657 212.718 247.657 212H246.657ZM246.357 211.7C246.523 211.7 246.657 211.834 246.657 212H247.657C247.657 211.282 247.075 210.7 246.357 210.7V211.7ZM239.955 211.7H246.357V210.7H239.955V211.7ZM239.455 204.8V211.2H240.455V204.8H239.455Z" fill="white" mask="url(#path-13-outside-5_11287_24635)"/>
<mask id="path-15-outside-6_11287_24635" maskUnits="userSpaceOnUse" x="254.157" y="203" width="18" height="18" fill="black">
<rect fill="white" x="254.157" y="203" width="18" height="18"/>
<path fill-rule="evenodd" clip-rule="evenodd" d="M263.955 204.8C263.955 204.358 263.597 204 263.155 204C262.714 204 262.355 204.358 262.355 204.8V211.2H255.957C255.515 211.2 255.157 211.558 255.157 212C255.157 212.442 255.515 212.8 255.957 212.8H262.355V219.2C262.355 219.642 262.714 220 263.155 220C263.597 220 263.955 219.642 263.955 219.2V212.8H270.357C270.799 212.8 271.157 212.442 271.157 212C271.157 211.558 270.799 211.2 270.357 211.2H263.955V204.8Z"/>
</mask>
<path fill-rule="evenodd" clip-rule="evenodd" d="M263.955 204.8C263.955 204.358 263.597 204 263.155 204C262.714 204 262.355 204.358 262.355 204.8V211.2H255.957C255.515 211.2 255.157 211.558 255.157 212C255.157 212.442 255.515 212.8 255.957 212.8H262.355V219.2C262.355 219.642 262.714 220 263.155 220C263.597 220 263.955 219.642 263.955 219.2V212.8H270.357C270.799 212.8 271.157 212.442 271.157 212C271.157 211.558 270.799 211.2 270.357 211.2H263.955V204.8Z" fill="white"/>
<path d="M262.355 211.2V211.7H262.855V211.2H262.355ZM262.355 212.8H262.855V212.3H262.355V212.8ZM263.955 212.8V212.3H263.455V212.8H263.955ZM263.955 211.2H263.455V211.7H263.955V211.2ZM263.155 204.5C263.321 204.5 263.455 204.634 263.455 204.8H264.455C264.455 204.082 263.873 203.5 263.155 203.5V204.5ZM262.855 204.8C262.855 204.634 262.99 204.5 263.155 204.5V203.5C262.438 203.5 261.855 204.082 261.855 204.8H262.855ZM262.855 211.2V204.8H261.855V211.2H262.855ZM255.957 211.7H262.355V210.7H255.957V211.7ZM255.657 212C255.657 211.834 255.791 211.7 255.957 211.7V210.7C255.239 210.7 254.657 211.282 254.657 212H255.657ZM255.957 212.3C255.791 212.3 255.657 212.166 255.657 212H254.657C254.657 212.718 255.239 213.3 255.957 213.3V212.3ZM262.355 212.3H255.957V213.3H262.355V212.3ZM262.855 219.2V212.8H261.855V219.2H262.855ZM263.155 219.5C262.99 219.5 262.855 219.366 262.855 219.2H261.855C261.855 219.918 262.438 220.5 263.155 220.5V219.5ZM263.455 219.2C263.455 219.366 263.321 219.5 263.155 219.5V220.5C263.873 220.5 264.455 219.918 264.455 219.2H263.455ZM263.455 212.8V219.2H264.455V212.8H263.455ZM270.357 212.3H263.955V213.3H270.357V212.3ZM270.657 212C270.657 212.166 270.523 212.3 270.357 212.3V213.3C271.075 213.3 271.657 212.718 271.657 212H270.657ZM270.357 211.7C270.523 211.7 270.657 211.834 270.657 212H271.657C271.657 211.282 271.075 210.7 270.357 210.7V211.7ZM263.955 211.7H270.357V210.7H263.955V211.7ZM263.455 204.8V211.2H264.455V204.8H263.455Z" fill="white" mask="url(#path-15-outside-6_11287_24635)"/>
<mask id="path-17-outside-7_11287_24635" maskUnits="userSpaceOnUse" x="134.157" y="227" width="18" height="18" fill="black">
<rect fill="white" x="134.157" y="227" width="18" height="18"/>
<path fill-rule="evenodd" clip-rule="evenodd" d="M143.955 228.8C143.955 228.358 143.597 228 143.155 228C142.714 228 142.355 228.358 142.355 228.8V235.2H135.957C135.515 235.2 135.157 235.558 135.157 236C135.157 236.442 135.515 236.8 135.957 236.8H142.355V243.2C142.355 243.642 142.714 244 143.155 244C143.597 244 143.955 243.642 143.955 243.2V236.8H150.357C150.799 236.8 151.157 236.442 151.157 236C151.157 235.558 150.799 235.2 150.357 235.2H143.955V228.8Z"/>
</mask>
<path fill-rule="evenodd" clip-rule="evenodd" d="M143.955 228.8C143.955 228.358 143.597 228 143.155 228C142.714 228 142.355 228.358 142.355 228.8V235.2H135.957C135.515 235.2 135.157 235.558 135.157 236C135.157 236.442 135.515 236.8 135.957 236.8H142.355V243.2C142.355 243.642 142.714 244 143.155 244C143.597 244 143.955 243.642 143.955 243.2V236.8H150.357C150.799 236.8 151.157 236.442 151.157 236C151.157 235.558 150.799 235.2 150.357 235.2H143.955V228.8Z" fill="white"/>
<path d="M142.355 235.2V235.7H142.855V235.2H142.355ZM142.355 236.8H142.855V236.3H142.355V236.8ZM143.955 236.8V236.3H143.455V236.8H143.955ZM143.955 235.2H143.455V235.7H143.955V235.2ZM143.155 228.5C143.321 228.5 143.455 228.634 143.455 228.8H144.455C144.455 228.082 143.873 227.5 143.155 227.5V228.5ZM142.855 228.8C142.855 228.634 142.99 228.5 143.155 228.5V227.5C142.438 227.5 141.855 228.082 141.855 228.8H142.855ZM142.855 235.2V228.8H141.855V235.2H142.855ZM135.957 235.7H142.355V234.7H135.957V235.7ZM135.657 236C135.657 235.834 135.791 235.7 135.957 235.7V234.7C135.239 234.7 134.657 235.282 134.657 236H135.657ZM135.957 236.3C135.791 236.3 135.657 236.166 135.657 236H134.657C134.657 236.718 135.239 237.3 135.957 237.3V236.3ZM142.355 236.3H135.957V237.3H142.355V236.3ZM142.855 243.2V236.8H141.855V243.2H142.855ZM143.155 243.5C142.99 243.5 142.855 243.366 142.855 243.2H141.855C141.855 243.918 142.438 244.5 143.155 244.5V243.5ZM143.455 243.2C143.455 243.366 143.321 243.5 143.155 243.5V244.5C143.873 244.5 144.455 243.918 144.455 243.2H143.455ZM143.455 236.8V243.2H144.455V236.8H143.455ZM150.357 236.3H143.955V237.3H150.357V236.3ZM150.657 236C150.657 236.166 150.523 236.3 150.357 236.3V237.3C151.075 237.3 151.657 236.718 151.657 236H150.657ZM150.357 235.7C150.523 235.7 150.657 235.834 150.657 236H151.657C151.657 235.282 151.075 234.7 150.357 234.7V235.7ZM143.955 235.7H150.357V234.7H143.955V235.7ZM143.455 228.8V235.2H144.455V228.8H143.455Z" fill="white" mask="url(#path-17-outside-7_11287_24635)"/>
<mask id="path-19-outside-8_11287_24635" maskUnits="userSpaceOnUse" x="158.157" y="227" width="18" height="18" fill="black">
<rect fill="white" x="158.157" y="227" width="18" height="18"/>
<path fill-rule="evenodd" clip-rule="evenodd" d="M167.955 228.8C167.955 228.358 167.597 228 167.155 228C166.714 228 166.355 228.358 166.355 228.8V235.2H159.957C159.515 235.2 159.157 235.558 159.157 236C159.157 236.442 159.515 236.8 159.957 236.8H166.355V243.2C166.355 243.642 166.714 244 167.155 244C167.597 244 167.955 243.642 167.955 243.2V236.8H174.357C174.799 236.8 175.157 236.442 175.157 236C175.157 235.558 174.799 235.2 174.357 235.2H167.955V228.8Z"/>
</mask>
<path fill-rule="evenodd" clip-rule="evenodd" d="M167.955 228.8C167.955 228.358 167.597 228 167.155 228C166.714 228 166.355 228.358 166.355 228.8V235.2H159.957C159.515 235.2 159.157 235.558 159.157 236C159.157 236.442 159.515 236.8 159.957 236.8H166.355V243.2C166.355 243.642 166.714 244 167.155 244C167.597 244 167.955 243.642 167.955 243.2V236.8H174.357C174.799 236.8 175.157 236.442 175.157 236C175.157 235.558 174.799 235.2 174.357 235.2H167.955V228.8Z" fill="white"/>
<path d="M166.355 235.2V235.7H166.855V235.2H166.355ZM166.355 236.8H166.855V236.3H166.355V236.8ZM167.955 236.8V236.3H167.455V236.8H167.955ZM167.955 235.2H167.455V235.7H167.955V235.2ZM167.155 228.5C167.321 228.5 167.455 228.634 167.455 228.8H168.455C168.455 228.082 167.873 227.5 167.155 227.5V228.5ZM166.855 228.8C166.855 228.634 166.99 228.5 167.155 228.5V227.5C166.438 227.5 165.855 228.082 165.855 228.8H166.855ZM166.855 235.2V228.8H165.855V235.2H166.855ZM159.957 235.7H166.355V234.7H159.957V235.7ZM159.657 236C159.657 235.834 159.791 235.7 159.957 235.7V234.7C159.239 234.7 158.657 235.282 158.657 236H159.657ZM159.957 236.3C159.791 236.3 159.657 236.166 159.657 236H158.657C158.657 236.718 159.239 237.3 159.957 237.3V236.3ZM166.355 236.3H159.957V237.3H166.355V236.3ZM166.855 243.2V236.8H165.855V243.2H166.855ZM167.155 243.5C166.99 243.5 166.855 243.366 166.855 243.2H165.855C165.855 243.918 166.438 244.5 167.155 244.5V243.5ZM167.455 243.2C167.455 243.366 167.321 243.5 167.155 243.5V244.5C167.873 244.5 168.455 243.918 168.455 243.2H167.455ZM167.455 236.8V243.2H168.455V236.8H167.455ZM174.357 236.3H167.955V237.3H174.357V236.3ZM174.657 236C174.657 236.166 174.523 236.3 174.357 236.3V237.3C175.075 237.3 175.657 236.718 175.657 236H174.657ZM174.357 235.7C174.523 235.7 174.657 235.834 174.657 236H175.657C175.657 235.282 175.075 234.7 174.357 234.7V235.7ZM167.955 235.7H174.357V234.7H167.955V235.7ZM167.455 228.8V235.2H168.455V228.8H167.455Z" fill="white" mask="url(#path-19-outside-8_11287_24635)"/>
<mask id="path-21-outside-9_11287_24635" maskUnits="userSpaceOnUse" x="182.157" y="227" width="18" height="18" fill="black">
<rect fill="white" x="182.157" y="227" width="18" height="18"/>
<path fill-rule="evenodd" clip-rule="evenodd" d="M191.955 228.8C191.955 228.358 191.597 228 191.155 228C190.714 228 190.355 228.358 190.355 228.8V235.2H183.957C183.515 235.2 183.157 235.558 183.157 236C183.157 236.442 183.515 236.8 183.957 236.8H190.355V243.2C190.355 243.642 190.714 244 191.155 244C191.597 244 191.955 243.642 191.955 243.2V236.8H198.357C198.799 236.8 199.157 236.442 199.157 236C199.157 235.558 198.799 235.2 198.357 235.2H191.955V228.8Z"/>
</mask>
<path fill-rule="evenodd" clip-rule="evenodd" d="M191.955 228.8C191.955 228.358 191.597 228 191.155 228C190.714 228 190.355 228.358 190.355 228.8V235.2H183.957C183.515 235.2 183.157 235.558 183.157 236C183.157 236.442 183.515 236.8 183.957 236.8H190.355V243.2C190.355 243.642 190.714 244 191.155 244C191.597 244 191.955 243.642 191.955 243.2V236.8H198.357C198.799 236.8 199.157 236.442 199.157 236C199.157 235.558 198.799 235.2 198.357 235.2H191.955V228.8Z" fill="white"/>
<path d="M190.355 235.2V235.7H190.855V235.2H190.355ZM190.355 236.8H190.855V236.3H190.355V236.8ZM191.955 236.8V236.3H191.455V236.8H191.955ZM191.955 235.2H191.455V235.7H191.955V235.2ZM191.155 228.5C191.321 228.5 191.455 228.634 191.455 228.8H192.455C192.455 228.082 191.873 227.5 191.155 227.5V228.5ZM190.855 228.8C190.855 228.634 190.99 228.5 191.155 228.5V227.5C190.438 227.5 189.855 228.082 189.855 228.8H190.855ZM190.855 235.2V228.8H189.855V235.2H190.855ZM183.957 235.7H190.355V234.7H183.957V235.7ZM183.657 236C183.657 235.834 183.791 235.7 183.957 235.7V234.7C183.239 234.7 182.657 235.282 182.657 236H183.657ZM183.957 236.3C183.791 236.3 183.657 236.166 183.657 236H182.657C182.657 236.718 183.239 237.3 183.957 237.3V236.3ZM190.355 236.3H183.957V237.3H190.355V236.3ZM190.855 243.2V236.8H189.855V243.2H190.855ZM191.155 243.5C190.99 243.5 190.855 243.366 190.855 243.2H189.855C189.855 243.918 190.438 244.5 191.155 244.5V243.5ZM191.455 243.2C191.455 243.366 191.321 243.5 191.155 243.5V244.5C191.873 244.5 192.455 243.918 192.455 243.2H191.455ZM191.455 236.8V243.2H192.455V236.8H191.455ZM198.357 236.3H191.955V237.3H198.357V236.3ZM198.657 236C198.657 236.166 198.523 236.3 198.357 236.3V237.3C199.075 237.3 199.657 236.718 199.657 236H198.657ZM198.357 235.7C198.523 235.7 198.657 235.834 198.657 236H199.657C199.657 235.282 199.075 234.7 198.357 234.7V235.7ZM191.955 235.7H198.357V234.7H191.955V235.7ZM191.455 228.8V235.2H192.455V228.8H191.455Z" fill="white" mask="url(#path-21-outside-9_11287_24635)"/>
<mask id="path-23-outside-10_11287_24635" maskUnits="userSpaceOnUse" x="206.157" y="227" width="18" height="18" fill="black">
<rect fill="white" x="206.157" y="227" width="18" height="18"/>
<path fill-rule="evenodd" clip-rule="evenodd" d="M215.955 228.8C215.955 228.358 215.597 228 215.155 228C214.714 228 214.355 228.358 214.355 228.8V235.2H207.957C207.515 235.2 207.157 235.558 207.157 236C207.157 236.442 207.515 236.8 207.957 236.8H214.355V243.2C214.355 243.642 214.714 244 215.155 244C215.597 244 215.955 243.642 215.955 243.2V236.8H222.357C222.799 236.8 223.157 236.442 223.157 236C223.157 235.558 222.799 235.2 222.357 235.2H215.955V228.8Z"/>
</mask>
<path fill-rule="evenodd" clip-rule="evenodd" d="M215.955 228.8C215.955 228.358 215.597 228 215.155 228C214.714 228 214.355 228.358 214.355 228.8V235.2H207.957C207.515 235.2 207.157 235.558 207.157 236C207.157 236.442 207.515 236.8 207.957 236.8H214.355V243.2C214.355 243.642 214.714 244 215.155 244C215.597 244 215.955 243.642 215.955 243.2V236.8H222.357C222.799 236.8 223.157 236.442 223.157 236C223.157 235.558 222.799 235.2 222.357 235.2H215.955V228.8Z" fill="white"/>
<path d="M214.355 235.2V235.7H214.855V235.2H214.355ZM214.355 236.8H214.855V236.3H214.355V236.8ZM215.955 236.8V236.3H215.455V236.8H215.955ZM215.955 235.2H215.455V235.7H215.955V235.2ZM215.155 228.5C215.321 228.5 215.455 228.634 215.455 228.8H216.455C216.455 228.082 215.873 227.5 215.155 227.5V228.5ZM214.855 228.8C214.855 228.634 214.99 228.5 215.155 228.5V227.5C214.438 227.5 213.855 228.082 213.855 228.8H214.855ZM214.855 235.2V228.8H213.855V235.2H214.855ZM207.957 235.7H214.355V234.7H207.957V235.7ZM207.657 236C207.657 235.834 207.791 235.7 207.957 235.7V234.7C207.239 234.7 206.657 235.282 206.657 236H207.657ZM207.957 236.3C207.791 236.3 207.657 236.166 207.657 236H206.657C206.657 236.718 207.239 237.3 207.957 237.3V236.3ZM214.355 236.3H207.957V237.3H214.355V236.3ZM214.855 243.2V236.8H213.855V243.2H214.855ZM215.155 243.5C214.99 243.5 214.855 243.366 214.855 243.2H213.855C213.855 243.918 214.438 244.5 215.155 244.5V243.5ZM215.455 243.2C215.455 243.366 215.321 243.5 215.155 243.5V244.5C215.873 244.5 216.455 243.918 216.455 243.2H215.455ZM215.455 236.8V243.2H216.455V236.8H215.455ZM222.357 236.3H215.955V237.3H222.357V236.3ZM222.657 236C222.657 236.166 222.523 236.3 222.357 236.3V237.3C223.075 237.3 223.657 236.718 223.657 236H222.657ZM222.357 235.7C222.523 235.7 222.657 235.834 222.657 236H223.657C223.657 235.282 223.075 234.7 222.357 234.7V235.7ZM215.955 235.7H222.357V234.7H215.955V235.7ZM215.455 228.8V235.2H216.455V228.8H215.455Z" fill="white" mask="url(#path-23-outside-10_11287_24635)"/>
<mask id="path-25-outside-11_11287_24635" maskUnits="userSpaceOnUse" x="230.157" y="227" width="18" height="18" fill="black">
<rect fill="white" x="230.157" y="227" width="18" height="18"/>
<path fill-rule="evenodd" clip-rule="evenodd" d="M239.955 228.8C239.955 228.358 239.597 228 239.155 228C238.714 228 238.355 228.358 238.355 228.8V235.2H231.957C231.515 235.2 231.157 235.558 231.157 236C231.157 236.442 231.515 236.8 231.957 236.8H238.355V243.2C238.355 243.642 238.714 244 239.155 244C239.597 244 239.955 243.642 239.955 243.2V236.8H246.357C246.799 236.8 247.157 236.442 247.157 236C247.157 235.558 246.799 235.2 246.357 235.2H239.955V228.8Z"/>
</mask>
<path fill-rule="evenodd" clip-rule="evenodd" d="M239.955 228.8C239.955 228.358 239.597 228 239.155 228C238.714 228 238.355 228.358 238.355 228.8V235.2H231.957C231.515 235.2 231.157 235.558 231.157 236C231.157 236.442 231.515 236.8 231.957 236.8H238.355V243.2C238.355 243.642 238.714 244 239.155 244C239.597 244 239.955 243.642 239.955 243.2V236.8H246.357C246.799 236.8 247.157 236.442 247.157 236C247.157 235.558 246.799 235.2 246.357 235.2H239.955V228.8Z" fill="white"/>
<path d="M238.355 235.2V235.7H238.855V235.2H238.355ZM238.355 236.8H238.855V236.3H238.355V236.8ZM239.955 236.8V236.3H239.455V236.8H239.955ZM239.955 235.2H239.455V235.7H239.955V235.2ZM239.155 228.5C239.321 228.5 239.455 228.634 239.455 228.8H240.455C240.455 228.082 239.873 227.5 239.155 227.5V228.5ZM238.855 228.8C238.855 228.634 238.99 228.5 239.155 228.5V227.5C238.438 227.5 237.855 228.082 237.855 228.8H238.855ZM238.855 235.2V228.8H237.855V235.2H238.855ZM231.957 235.7H238.355V234.7H231.957V235.7ZM231.657 236C231.657 235.834 231.791 235.7 231.957 235.7V234.7C231.239 234.7 230.657 235.282 230.657 236H231.657ZM231.957 236.3C231.791 236.3 231.657 236.166 231.657 236H230.657C230.657 236.718 231.239 237.3 231.957 237.3V236.3ZM238.355 236.3H231.957V237.3H238.355V236.3ZM238.855 243.2V236.8H237.855V243.2H238.855ZM239.155 243.5C238.99 243.5 238.855 243.366 238.855 243.2H237.855C237.855 243.918 238.438 244.5 239.155 244.5V243.5ZM239.455 243.2C239.455 243.366 239.321 243.5 239.155 243.5V244.5C239.873 244.5 240.455 243.918 240.455 243.2H239.455ZM239.455 236.8V243.2H240.455V236.8H239.455ZM246.357 236.3H239.955V237.3H246.357V236.3ZM246.657 236C246.657 236.166 246.523 236.3 246.357 236.3V237.3C247.075 237.3 247.657 236.718 247.657 236H246.657ZM246.357 235.7C246.523 235.7 246.657 235.834 246.657 236H247.657C247.657 235.282 247.075 234.7 246.357 234.7V235.7ZM239.955 235.7H246.357V234.7H239.955V235.7ZM239.455 228.8V235.2H240.455V228.8H239.455Z" fill="white" mask="url(#path-25-outside-11_11287_24635)"/>
<mask id="path-27-outside-12_11287_24635" maskUnits="userSpaceOnUse" x="254.157" y="227" width="18" height="18" fill="black">
<rect fill="white" x="254.157" y="227" width="18" height="18"/>
<path fill-rule="evenodd" clip-rule="evenodd" d="M263.955 228.8C263.955 228.358 263.597 228 263.155 228C262.714 228 262.355 228.358 262.355 228.8V235.2H255.957C255.515 235.2 255.157 235.558 255.157 236C255.157 236.442 255.515 236.8 255.957 236.8H262.355V243.2C262.355 243.642 262.714 244 263.155 244C263.597 244 263.955 243.642 263.955 243.2V236.8H270.357C270.799 236.8 271.157 236.442 271.157 236C271.157 235.558 270.799 235.2 270.357 235.2H263.955V228.8Z"/>
</mask>
<path fill-rule="evenodd" clip-rule="evenodd" d="M263.955 228.8C263.955 228.358 263.597 228 263.155 228C262.714 228 262.355 228.358 262.355 228.8V235.2H255.957C255.515 235.2 255.157 235.558 255.157 236C255.157 236.442 255.515 236.8 255.957 236.8H262.355V243.2C262.355 243.642 262.714 244 263.155 244C263.597 244 263.955 243.642 263.955 243.2V236.8H270.357C270.799 236.8 271.157 236.442 271.157 236C271.157 235.558 270.799 235.2 270.357 235.2H263.955V228.8Z" fill="white"/>
<path d="M262.355 235.2V235.7H262.855V235.2H262.355ZM262.355 236.8H262.855V236.3H262.355V236.8ZM263.955 236.8V236.3H263.455V236.8H263.955ZM263.955 235.2H263.455V235.7H263.955V235.2ZM263.155 228.5C263.321 228.5 263.455 228.634 263.455 228.8H264.455C264.455 228.082 263.873 227.5 263.155 227.5V228.5ZM262.855 228.8C262.855 228.634 262.99 228.5 263.155 228.5V227.5C262.438 227.5 261.855 228.082 261.855 228.8H262.855ZM262.855 235.2V228.8H261.855V235.2H262.855ZM255.957 235.7H262.355V234.7H255.957V235.7ZM255.657 236C255.657 235.834 255.791 235.7 255.957 235.7V234.7C255.239 234.7 254.657 235.282 254.657 236H255.657ZM255.957 236.3C255.791 236.3 255.657 236.166 255.657 236H254.657C254.657 236.718 255.239 237.3 255.957 237.3V236.3ZM262.355 236.3H255.957V237.3H262.355V236.3ZM262.855 243.2V236.8H261.855V243.2H262.855ZM263.155 243.5C262.99 243.5 262.855 243.366 262.855 243.2H261.855C261.855 243.918 262.438 244.5 263.155 244.5V243.5ZM263.455 243.2C263.455 243.366 263.321 243.5 263.155 243.5V244.5C263.873 244.5 264.455 243.918 264.455 243.2H263.455ZM263.455 236.8V243.2H264.455V236.8H263.455ZM270.357 236.3H263.955V237.3H270.357V236.3ZM270.657 236C270.657 236.166 270.523 236.3 270.357 236.3V237.3C271.075 237.3 271.657 236.718 271.657 236H270.657ZM270.357 235.7C270.523 235.7 270.657 235.834 270.657 236H271.657C271.657 235.282 271.075 234.7 270.357 234.7V235.7ZM263.955 235.7H270.357V234.7H263.955V235.7ZM263.455 228.8V235.2H264.455V228.8H263.455Z" fill="white" mask="url(#path-27-outside-12_11287_24635)"/>
<mask id="path-29-outside-13_11287_24635" maskUnits="userSpaceOnUse" x="134.157" y="251" width="18" height="18" fill="black">
<rect fill="white" x="134.157" y="251" width="18" height="18"/>
<path fill-rule="evenodd" clip-rule="evenodd" d="M143.955 252.8C143.955 252.358 143.597 252 143.155 252C142.714 252 142.355 252.358 142.355 252.8V259.2H135.957C135.515 259.2 135.157 259.558 135.157 260C135.157 260.442 135.515 260.8 135.957 260.8H142.355V267.2C142.355 267.642 142.714 268 143.155 268C143.597 268 143.955 267.642 143.955 267.2V260.8H150.357C150.799 260.8 151.157 260.442 151.157 260C151.157 259.558 150.799 259.2 150.357 259.2H143.955V252.8Z"/>
</mask>
<path fill-rule="evenodd" clip-rule="evenodd" d="M143.955 252.8C143.955 252.358 143.597 252 143.155 252C142.714 252 142.355 252.358 142.355 252.8V259.2H135.957C135.515 259.2 135.157 259.558 135.157 260C135.157 260.442 135.515 260.8 135.957 260.8H142.355V267.2C142.355 267.642 142.714 268 143.155 268C143.597 268 143.955 267.642 143.955 267.2V260.8H150.357C150.799 260.8 151.157 260.442 151.157 260C151.157 259.558 150.799 259.2 150.357 259.2H143.955V252.8Z" fill="white"/>
<path d="M142.355 259.2V259.7H142.855V259.2H142.355ZM142.355 260.8H142.855V260.3H142.355V260.8ZM143.955 260.8V260.3H143.455V260.8H143.955ZM143.955 259.2H143.455V259.7H143.955V259.2ZM143.155 252.5C143.321 252.5 143.455 252.634 143.455 252.8H144.455C144.455 252.082 143.873 251.5 143.155 251.5V252.5ZM142.855 252.8C142.855 252.634 142.99 252.5 143.155 252.5V251.5C142.438 251.5 141.855 252.082 141.855 252.8H142.855ZM142.855 259.2V252.8H141.855V259.2H142.855ZM135.957 259.7H142.355V258.7H135.957V259.7ZM135.657 260C135.657 259.834 135.791 259.7 135.957 259.7V258.7C135.239 258.7 134.657 259.282 134.657 260H135.657ZM135.957 260.3C135.791 260.3 135.657 260.166 135.657 260H134.657C134.657 260.718 135.239 261.3 135.957 261.3V260.3ZM142.355 260.3H135.957V261.3H142.355V260.3ZM142.855 267.2V260.8H141.855V267.2H142.855ZM143.155 267.5C142.99 267.5 142.855 267.366 142.855 267.2H141.855C141.855 267.918 142.438 268.5 143.155 268.5V267.5ZM143.455 267.2C143.455 267.366 143.321 267.5 143.155 267.5V268.5C143.873 268.5 144.455 267.918 144.455 267.2H143.455ZM143.455 260.8V267.2H144.455V260.8H143.455ZM150.357 260.3H143.955V261.3H150.357V260.3ZM150.657 260C150.657 260.166 150.523 260.3 150.357 260.3V261.3C151.075 261.3 151.657 260.718 151.657 260H150.657ZM150.357 259.7C150.523 259.7 150.657 259.834 150.657 260H151.657C151.657 259.282 151.075 258.7 150.357 258.7V259.7ZM143.955 259.7H150.357V258.7H143.955V259.7ZM143.455 252.8V259.2H144.455V252.8H143.455Z" fill="white" mask="url(#path-29-outside-13_11287_24635)"/>
<mask id="path-31-outside-14_11287_24635" maskUnits="userSpaceOnUse" x="158.157" y="251" width="18" height="18" fill="black">
<rect fill="white" x="158.157" y="251" width="18" height="18"/>
<path fill-rule="evenodd" clip-rule="evenodd" d="M167.955 252.8C167.955 252.358 167.597 252 167.155 252C166.714 252 166.355 252.358 166.355 252.8V259.2H159.957C159.515 259.2 159.157 259.558 159.157 260C159.157 260.442 159.515 260.8 159.957 260.8H166.355V267.2C166.355 267.642 166.714 268 167.155 268C167.597 268 167.955 267.642 167.955 267.2V260.8H174.357C174.799 260.8 175.157 260.442 175.157 260C175.157 259.558 174.799 259.2 174.357 259.2H167.955V252.8Z"/>
</mask>
<path fill-rule="evenodd" clip-rule="evenodd" d="M167.955 252.8C167.955 252.358 167.597 252 167.155 252C166.714 252 166.355 252.358 166.355 252.8V259.2H159.957C159.515 259.2 159.157 259.558 159.157 260C159.157 260.442 159.515 260.8 159.957 260.8H166.355V267.2C166.355 267.642 166.714 268 167.155 268C167.597 268 167.955 267.642 167.955 267.2V260.8H174.357C174.799 260.8 175.157 260.442 175.157 260C175.157 259.558 174.799 259.2 174.357 259.2H167.955V252.8Z" fill="white"/>
<path d="M166.355 259.2V259.7H166.855V259.2H166.355ZM166.355 260.8H166.855V260.3H166.355V260.8ZM167.955 260.8V260.3H167.455V260.8H167.955ZM167.955 259.2H167.455V259.7H167.955V259.2ZM167.155 252.5C167.321 252.5 167.455 252.634 167.455 252.8H168.455C168.455 252.082 167.873 251.5 167.155 251.5V252.5ZM166.855 252.8C166.855 252.634 166.99 252.5 167.155 252.5V251.5C166.438 251.5 165.855 252.082 165.855 252.8H166.855ZM166.855 259.2V252.8H165.855V259.2H166.855ZM159.957 259.7H166.355V258.7H159.957V259.7ZM159.657 260C159.657 259.834 159.791 259.7 159.957 259.7V258.7C159.239 258.7 158.657 259.282 158.657 260H159.657ZM159.957 260.3C159.791 260.3 159.657 260.166 159.657 260H158.657C158.657 260.718 159.239 261.3 159.957 261.3V260.3ZM166.355 260.3H159.957V261.3H166.355V260.3ZM166.855 267.2V260.8H165.855V267.2H166.855ZM167.155 267.5C166.99 267.5 166.855 267.366 166.855 267.2H165.855C165.855 267.918 166.438 268.5 167.155 268.5V267.5ZM167.455 267.2C167.455 267.366 167.321 267.5 167.155 267.5V268.5C167.873 268.5 168.455 267.918 168.455 267.2H167.455ZM167.455 260.8V267.2H168.455V260.8H167.455ZM174.357 260.3H167.955V261.3H174.357V260.3ZM174.657 260C174.657 260.166 174.523 260.3 174.357 260.3V261.3C175.075 261.3 175.657 260.718 175.657 260H174.657ZM174.357 259.7C174.523 259.7 174.657 259.834 174.657 260H175.657C175.657 259.282 175.075 258.7 174.357 258.7V259.7ZM167.955 259.7H174.357V258.7H167.955V259.7ZM167.455 252.8V259.2H168.455V252.8H167.455Z" fill="white" mask="url(#path-31-outside-14_11287_24635)"/>
<mask id="path-33-outside-15_11287_24635" maskUnits="userSpaceOnUse" x="182.157" y="251" width="18" height="18" fill="black">
<rect fill="white" x="182.157" y="251" width="18" height="18"/>
<path fill-rule="evenodd" clip-rule="evenodd" d="M191.955 252.8C191.955 252.358 191.597 252 191.155 252C190.714 252 190.355 252.358 190.355 252.8V259.2H183.957C183.515 259.2 183.157 259.558 183.157 260C183.157 260.442 183.515 260.8 183.957 260.8H190.355V267.2C190.355 267.642 190.714 268 191.155 268C191.597 268 191.955 267.642 191.955 267.2V260.8H198.357C198.799 260.8 199.157 260.442 199.157 260C199.157 259.558 198.799 259.2 198.357 259.2H191.955V252.8Z"/>
</mask>
<path fill-rule="evenodd" clip-rule="evenodd" d="M191.955 252.8C191.955 252.358 191.597 252 191.155 252C190.714 252 190.355 252.358 190.355 252.8V259.2H183.957C183.515 259.2 183.157 259.558 183.157 260C183.157 260.442 183.515 260.8 183.957 260.8H190.355V267.2C190.355 267.642 190.714 268 191.155 268C191.597 268 191.955 267.642 191.955 267.2V260.8H198.357C198.799 260.8 199.157 260.442 199.157 260C199.157 259.558 198.799 259.2 198.357 259.2H191.955V252.8Z" fill="white"/>
<path d="M190.355 259.2V259.7H190.855V259.2H190.355ZM190.355 260.8H190.855V260.3H190.355V260.8ZM191.955 260.8V260.3H191.455V260.8H191.955ZM191.955 259.2H191.455V259.7H191.955V259.2ZM191.155 252.5C191.321 252.5 191.455 252.634 191.455 252.8H192.455C192.455 252.082 191.873 251.5 191.155 251.5V252.5ZM190.855 252.8C190.855 252.634 190.99 252.5 191.155 252.5V251.5C190.438 251.5 189.855 252.082 189.855 252.8H190.855ZM190.855 259.2V252.8H189.855V259.2H190.855ZM183.957 259.7H190.355V258.7H183.957V259.7ZM183.657 260C183.657 259.834 183.791 259.7 183.957 259.7V258.7C183.239 258.7 182.657 259.282 182.657 260H183.657ZM183.957 260.3C183.791 260.3 183.657 260.166 183.657 260H182.657C182.657 260.718 183.239 261.3 183.957 261.3V260.3ZM190.355 260.3H183.957V261.3H190.355V260.3ZM190.855 267.2V260.8H189.855V267.2H190.855ZM191.155 267.5C190.99 267.5 190.855 267.366 190.855 267.2H189.855C189.855 267.918 190.438 268.5 191.155 268.5V267.5ZM191.455 267.2C191.455 267.366 191.321 267.5 191.155 267.5V268.5C191.873 268.5 192.455 267.918 192.455 267.2H191.455ZM191.455 260.8V267.2H192.455V260.8H191.455ZM198.357 260.3H191.955V261.3H198.357V260.3ZM198.657 260C198.657 260.166 198.523 260.3 198.357 260.3V261.3C199.075 261.3 199.657 260.718 199.657 260H198.657ZM198.357 259.7C198.523 259.7 198.657 259.834 198.657 260H199.657C199.657 259.282 199.075 258.7 198.357 258.7V259.7ZM191.955 259.7H198.357V258.7H191.955V259.7ZM191.455 252.8V259.2H192.455V252.8H191.455Z" fill="white" mask="url(#path-33-outside-15_11287_24635)"/>
<mask id="path-35-outside-16_11287_24635" maskUnits="userSpaceOnUse" x="206.157" y="251" width="18" height="18" fill="black">
<rect fill="white" x="206.157" y="251" width="18" height="18"/>
<path fill-rule="evenodd" clip-rule="evenodd" d="M215.955 252.8C215.955 252.358 215.597 252 215.155 252C214.714 252 214.355 252.358 214.355 252.8V259.2H207.957C207.515 259.2 207.157 259.558 207.157 260C207.157 260.442 207.515 260.8 207.957 260.8H214.355V267.2C214.355 267.642 214.714 268 215.155 268C215.597 268 215.955 267.642 215.955 267.2V260.8H222.357C222.799 260.8 223.157 260.442 223.157 260C223.157 259.558 222.799 259.2 222.357 259.2H215.955V252.8Z"/>
</mask>
<path fill-rule="evenodd" clip-rule="evenodd" d="M215.955 252.8C215.955 252.358 215.597 252 215.155 252C214.714 252 214.355 252.358 214.355 252.8V259.2H207.957C207.515 259.2 207.157 259.558 207.157 260C207.157 260.442 207.515 260.8 207.957 260.8H214.355V267.2C214.355 267.642 214.714 268 215.155 268C215.597 268 215.955 267.642 215.955 267.2V260.8H222.357C222.799 260.8 223.157 260.442 223.157 260C223.157 259.558 222.799 259.2 222.357 259.2H215.955V252.8Z" fill="white"/>
<path d="M214.355 259.2V259.7H214.855V259.2H214.355ZM214.355 260.8H214.855V260.3H214.355V260.8ZM215.955 260.8V260.3H215.455V260.8H215.955ZM215.955 259.2H215.455V259.7H215.955V259.2ZM215.155 252.5C215.321 252.5 215.455 252.634 215.455 252.8H216.455C216.455 252.082 215.873 251.5 215.155 251.5V252.5ZM214.855 252.8C214.855 252.634 214.99 252.5 215.155 252.5V251.5C214.438 251.5 213.855 252.082 213.855 252.8H214.855ZM214.855 259.2V252.8H213.855V259.2H214.855ZM207.957 259.7H214.355V258.7H207.957V259.7ZM207.657 260C207.657 259.834 207.791 259.7 207.957 259.7V258.7C207.239 258.7 206.657 259.282 206.657 260H207.657ZM207.957 260.3C207.791 260.3 207.657 260.166 207.657 260H206.657C206.657 260.718 207.239 261.3 207.957 261.3V260.3ZM214.355 260.3H207.957V261.3H214.355V260.3ZM214.855 267.2V260.8H213.855V267.2H214.855ZM215.155 267.5C214.99 267.5 214.855 267.366 214.855 267.2H213.855C213.855 267.918 214.438 268.5 215.155 268.5V267.5ZM215.455 267.2C215.455 267.366 215.321 267.5 215.155 267.5V268.5C215.873 268.5 216.455 267.918 216.455 267.2H215.455ZM215.455 260.8V267.2H216.455V260.8H215.455ZM222.357 260.3H215.955V261.3H222.357V260.3ZM222.657 260C222.657 260.166 222.523 260.3 222.357 260.3V261.3C223.075 261.3 223.657 260.718 223.657 260H222.657ZM222.357 259.7C222.523 259.7 222.657 259.834 222.657 260H223.657C223.657 259.282 223.075 258.7 222.357 258.7V259.7ZM215.955 259.7H222.357V258.7H215.955V259.7ZM215.455 252.8V259.2H216.455V252.8H215.455Z" fill="white" mask="url(#path-35-outside-16_11287_24635)"/>
<mask id="path-37-outside-17_11287_24635" maskUnits="userSpaceOnUse" x="230.157" y="251" width="18" height="18" fill="black">
<rect fill="white" x="230.157" y="251" width="18" height="18"/>
<path fill-rule="evenodd" clip-rule="evenodd" d="M239.955 252.8C239.955 252.358 239.597 252 239.155 252C238.714 252 238.355 252.358 238.355 252.8V259.2H231.957C231.515 259.2 231.157 259.558 231.157 260C231.157 260.442 231.515 260.8 231.957 260.8H238.355V267.2C238.355 267.642 238.714 268 239.155 268C239.597 268 239.955 267.642 239.955 267.2V260.8H246.357C246.799 260.8 247.157 260.442 247.157 260C247.157 259.558 246.799 259.2 246.357 259.2H239.955V252.8Z"/>
</mask>
<path fill-rule="evenodd" clip-rule="evenodd" d="M239.955 252.8C239.955 252.358 239.597 252 239.155 252C238.714 252 238.355 252.358 238.355 252.8V259.2H231.957C231.515 259.2 231.157 259.558 231.157 260C231.157 260.442 231.515 260.8 231.957 260.8H238.355V267.2C238.355 267.642 238.714 268 239.155 268C239.597 268 239.955 267.642 239.955 267.2V260.8H246.357C246.799 260.8 247.157 260.442 247.157 260C247.157 259.558 246.799 259.2 246.357 259.2H239.955V252.8Z" fill="white"/>
<path d="M238.355 259.2V259.7H238.855V259.2H238.355ZM238.355 260.8H238.855V260.3H238.355V260.8ZM239.955 260.8V260.3H239.455V260.8H239.955ZM239.955 259.2H239.455V259.7H239.955V259.2ZM239.155 252.5C239.321 252.5 239.455 252.634 239.455 252.8H240.455C240.455 252.082 239.873 251.5 239.155 251.5V252.5ZM238.855 252.8C238.855 252.634 238.99 252.5 239.155 252.5V251.5C238.438 251.5 237.855 252.082 237.855 252.8H238.855ZM238.855 259.2V252.8H237.855V259.2H238.855ZM231.957 259.7H238.355V258.7H231.957V259.7ZM231.657 260C231.657 259.834 231.791 259.7 231.957 259.7V258.7C231.239 258.7 230.657 259.282 230.657 260H231.657ZM231.957 260.3C231.791 260.3 231.657 260.166 231.657 260H230.657C230.657 260.718 231.239 261.3 231.957 261.3V260.3ZM238.355 260.3H231.957V261.3H238.355V260.3ZM238.855 267.2V260.8H237.855V267.2H238.855ZM239.155 267.5C238.99 267.5 238.855 267.366 238.855 267.2H237.855C237.855 267.918 238.438 268.5 239.155 268.5V267.5ZM239.455 267.2C239.455 267.366 239.321 267.5 239.155 267.5V268.5C239.873 268.5 240.455 267.918 240.455 267.2H239.455ZM239.455 260.8V267.2H240.455V260.8H239.455ZM246.357 260.3H239.955V261.3H246.357V260.3ZM246.657 260C246.657 260.166 246.523 260.3 246.357 260.3V261.3C247.075 261.3 247.657 260.718 247.657 260H246.657ZM246.357 259.7C246.523 259.7 246.657 259.834 246.657 260H247.657C247.657 259.282 247.075 258.7 246.357 258.7V259.7ZM239.955 259.7H246.357V258.7H239.955V259.7ZM239.455 252.8V259.2H240.455V252.8H239.455Z" fill="white" mask="url(#path-37-outside-17_11287_24635)"/>
<mask id="path-39-outside-18_11287_24635" maskUnits="userSpaceOnUse" x="254.157" y="251" width="18" height="18" fill="black">
<rect fill="white" x="254.157" y="251" width="18" height="18"/>
<path fill-rule="evenodd" clip-rule="evenodd" d="M263.955 252.8C263.955 252.358 263.597 252 263.155 252C262.714 252 262.355 252.358 262.355 252.8V259.2H255.957C255.515 259.2 255.157 259.558 255.157 260C255.157 260.442 255.515 260.8 255.957 260.8H262.355V267.2C262.355 267.642 262.714 268 263.155 268C263.597 268 263.955 267.642 263.955 267.2V260.8H270.357C270.799 260.8 271.157 260.442 271.157 260C271.157 259.558 270.799 259.2 270.357 259.2H263.955V252.8Z"/>
</mask>
<path fill-rule="evenodd" clip-rule="evenodd" d="M263.955 252.8C263.955 252.358 263.597 252 263.155 252C262.714 252 262.355 252.358 262.355 252.8V259.2H255.957C255.515 259.2 255.157 259.558 255.157 260C255.157 260.442 255.515 260.8 255.957 260.8H262.355V267.2C262.355 267.642 262.714 268 263.155 268C263.597 268 263.955 267.642 263.955 267.2V260.8H270.357C270.799 260.8 271.157 260.442 271.157 260C271.157 259.558 270.799 259.2 270.357 259.2H263.955V252.8Z" fill="white"/>
<path d="M262.355 259.2V259.7H262.855V259.2H262.355ZM262.355 260.8H262.855V260.3H262.355V260.8ZM263.955 260.8V260.3H263.455V260.8H263.955ZM263.955 259.2H263.455V259.7H263.955V259.2ZM263.155 252.5C263.321 252.5 263.455 252.634 263.455 252.8H264.455C264.455 252.082 263.873 251.5 263.155 251.5V252.5ZM262.855 252.8C262.855 252.634 262.99 252.5 263.155 252.5V251.5C262.438 251.5 261.855 252.082 261.855 252.8H262.855ZM262.855 259.2V252.8H261.855V259.2H262.855ZM255.957 259.7H262.355V258.7H255.957V259.7ZM255.657 260C255.657 259.834 255.791 259.7 255.957 259.7V258.7C255.239 258.7 254.657 259.282 254.657 260H255.657ZM255.957 260.3C255.791 260.3 255.657 260.166 255.657 260H254.657C254.657 260.718 255.239 261.3 255.957 261.3V260.3ZM262.355 260.3H255.957V261.3H262.355V260.3ZM262.855 267.2V260.8H261.855V267.2H262.855ZM263.155 267.5C262.99 267.5 262.855 267.366 262.855 267.2H261.855C261.855 267.918 262.438 268.5 263.155 268.5V267.5ZM263.455 267.2C263.455 267.366 263.321 267.5 263.155 267.5V268.5C263.873 268.5 264.455 267.918 264.455 267.2H263.455ZM263.455 260.8V267.2H264.455V260.8H263.455ZM270.357 260.3H263.955V261.3H270.357V260.3ZM270.657 260C270.657 260.166 270.523 260.3 270.357 260.3V261.3C271.075 261.3 271.657 260.718 271.657 260H270.657ZM270.357 259.7C270.523 259.7 270.657 259.834 270.657 260H271.657C271.657 259.282 271.075 258.7 270.357 258.7V259.7ZM263.955 259.7H270.357V258.7H263.955V259.7ZM263.455 252.8V259.2H264.455V252.8H263.455Z" fill="white" mask="url(#path-39-outside-18_11287_24635)"/>
<mask id="path-41-outside-19_11287_24635" maskUnits="userSpaceOnUse" x="134.157" y="275" width="18" height="18" fill="black">
<rect fill="white" x="134.157" y="275" width="18" height="18"/>
<path fill-rule="evenodd" clip-rule="evenodd" d="M143.955 276.8C143.955 276.358 143.597 276 143.155 276C142.714 276 142.355 276.358 142.355 276.8V283.2H135.957C135.515 283.2 135.157 283.558 135.157 284C135.157 284.442 135.515 284.8 135.957 284.8H142.355V291.2C142.355 291.642 142.714 292 143.155 292C143.597 292 143.955 291.642 143.955 291.2V284.8H150.357C150.799 284.8 151.157 284.442 151.157 284C151.157 283.558 150.799 283.2 150.357 283.2H143.955V276.8Z"/>
</mask>
<path fill-rule="evenodd" clip-rule="evenodd" d="M143.955 276.8C143.955 276.358 143.597 276 143.155 276C142.714 276 142.355 276.358 142.355 276.8V283.2H135.957C135.515 283.2 135.157 283.558 135.157 284C135.157 284.442 135.515 284.8 135.957 284.8H142.355V291.2C142.355 291.642 142.714 292 143.155 292C143.597 292 143.955 291.642 143.955 291.2V284.8H150.357C150.799 284.8 151.157 284.442 151.157 284C151.157 283.558 150.799 283.2 150.357 283.2H143.955V276.8Z" fill="white"/>
<path d="M142.355 283.2V283.7H142.855V283.2H142.355ZM142.355 284.8H142.855V284.3H142.355V284.8ZM143.955 284.8V284.3H143.455V284.8H143.955ZM143.955 283.2H143.455V283.7H143.955V283.2ZM143.155 276.5C143.321 276.5 143.455 276.634 143.455 276.8H144.455C144.455 276.082 143.873 275.5 143.155 275.5V276.5ZM142.855 276.8C142.855 276.634 142.99 276.5 143.155 276.5V275.5C142.438 275.5 141.855 276.082 141.855 276.8H142.855ZM142.855 283.2V276.8H141.855V283.2H142.855ZM135.957 283.7H142.355V282.7H135.957V283.7ZM135.657 284C135.657 283.834 135.791 283.7 135.957 283.7V282.7C135.239 282.7 134.657 283.282 134.657 284H135.657ZM135.957 284.3C135.791 284.3 135.657 284.166 135.657 284H134.657C134.657 284.718 135.239 285.3 135.957 285.3V284.3ZM142.355 284.3H135.957V285.3H142.355V284.3ZM142.855 291.2V284.8H141.855V291.2H142.855ZM143.155 291.5C142.99 291.5 142.855 291.366 142.855 291.2H141.855C141.855 291.918 142.438 292.5 143.155 292.5V291.5ZM143.455 291.2C143.455 291.366 143.321 291.5 143.155 291.5V292.5C143.873 292.5 144.455 291.918 144.455 291.2H143.455ZM143.455 284.8V291.2H144.455V284.8H143.455ZM150.357 284.3H143.955V285.3H150.357V284.3ZM150.657 284C150.657 284.166 150.523 284.3 150.357 284.3V285.3C151.075 285.3 151.657 284.718 151.657 284H150.657ZM150.357 283.7C150.523 283.7 150.657 283.834 150.657 284H151.657C151.657 283.282 151.075 282.7 150.357 282.7V283.7ZM143.955 283.7H150.357V282.7H143.955V283.7ZM143.455 276.8V283.2H144.455V276.8H143.455Z" fill="white" mask="url(#path-41-outside-19_11287_24635)"/>
<mask id="path-43-outside-20_11287_24635" maskUnits="userSpaceOnUse" x="158.157" y="275" width="18" height="18" fill="black">
<rect fill="white" x="158.157" y="275" width="18" height="18"/>
<path fill-rule="evenodd" clip-rule="evenodd" d="M167.955 276.8C167.955 276.358 167.597 276 167.155 276C166.714 276 166.355 276.358 166.355 276.8V283.2H159.957C159.515 283.2 159.157 283.558 159.157 284C159.157 284.442 159.515 284.8 159.957 284.8H166.355V291.2C166.355 291.642 166.714 292 167.155 292C167.597 292 167.955 291.642 167.955 291.2V284.8H174.357C174.799 284.8 175.157 284.442 175.157 284C175.157 283.558 174.799 283.2 174.357 283.2H167.955V276.8Z"/>
</mask>
<path fill-rule="evenodd" clip-rule="evenodd" d="M167.955 276.8C167.955 276.358 167.597 276 167.155 276C166.714 276 166.355 276.358 166.355 276.8V283.2H159.957C159.515 283.2 159.157 283.558 159.157 284C159.157 284.442 159.515 284.8 159.957 284.8H166.355V291.2C166.355 291.642 166.714 292 167.155 292C167.597 292 167.955 291.642 167.955 291.2V284.8H174.357C174.799 284.8 175.157 284.442 175.157 284C175.157 283.558 174.799 283.2 174.357 283.2H167.955V276.8Z" fill="white"/>
<path d="M166.355 283.2V283.7H166.855V283.2H166.355ZM166.355 284.8H166.855V284.3H166.355V284.8ZM167.955 284.8V284.3H167.455V284.8H167.955ZM167.955 283.2H167.455V283.7H167.955V283.2ZM167.155 276.5C167.321 276.5 167.455 276.634 167.455 276.8H168.455C168.455 276.082 167.873 275.5 167.155 275.5V276.5ZM166.855 276.8C166.855 276.634 166.99 276.5 167.155 276.5V275.5C166.438 275.5 165.855 276.082 165.855 276.8H166.855ZM166.855 283.2V276.8H165.855V283.2H166.855ZM159.957 283.7H166.355V282.7H159.957V283.7ZM159.657 284C159.657 283.834 159.791 283.7 159.957 283.7V282.7C159.239 282.7 158.657 283.282 158.657 284H159.657ZM159.957 284.3C159.791 284.3 159.657 284.166 159.657 284H158.657C158.657 284.718 159.239 285.3 159.957 285.3V284.3ZM166.355 284.3H159.957V285.3H166.355V284.3ZM166.855 291.2V284.8H165.855V291.2H166.855ZM167.155 291.5C166.99 291.5 166.855 291.366 166.855 291.2H165.855C165.855 291.918 166.438 292.5 167.155 292.5V291.5ZM167.455 291.2C167.455 291.366 167.321 291.5 167.155 291.5V292.5C167.873 292.5 168.455 291.918 168.455 291.2H167.455ZM167.455 284.8V291.2H168.455V284.8H167.455ZM174.357 284.3H167.955V285.3H174.357V284.3ZM174.657 284C174.657 284.166 174.523 284.3 174.357 284.3V285.3C175.075 285.3 175.657 284.718 175.657 284H174.657ZM174.357 283.7C174.523 283.7 174.657 283.834 174.657 284H175.657C175.657 283.282 175.075 282.7 174.357 282.7V283.7ZM167.955 283.7H174.357V282.7H167.955V283.7ZM167.455 276.8V283.2H168.455V276.8H167.455Z" fill="white" mask="url(#path-43-outside-20_11287_24635)"/>
<mask id="path-45-outside-21_11287_24635" maskUnits="userSpaceOnUse" x="182.157" y="275" width="18" height="18" fill="black">
<rect fill="white" x="182.157" y="275" width="18" height="18"/>
<path fill-rule="evenodd" clip-rule="evenodd" d="M191.955 276.8C191.955 276.358 191.597 276 191.155 276C190.714 276 190.355 276.358 190.355 276.8V283.2H183.957C183.515 283.2 183.157 283.558 183.157 284C183.157 284.442 183.515 284.8 183.957 284.8H190.355V291.2C190.355 291.642 190.714 292 191.155 292C191.597 292 191.955 291.642 191.955 291.2V284.8H198.357C198.799 284.8 199.157 284.442 199.157 284C199.157 283.558 198.799 283.2 198.357 283.2H191.955V276.8Z"/>
</mask>
<path fill-rule="evenodd" clip-rule="evenodd" d="M191.955 276.8C191.955 276.358 191.597 276 191.155 276C190.714 276 190.355 276.358 190.355 276.8V283.2H183.957C183.515 283.2 183.157 283.558 183.157 284C183.157 284.442 183.515 284.8 183.957 284.8H190.355V291.2C190.355 291.642 190.714 292 191.155 292C191.597 292 191.955 291.642 191.955 291.2V284.8H198.357C198.799 284.8 199.157 284.442 199.157 284C199.157 283.558 198.799 283.2 198.357 283.2H191.955V276.8Z" fill="white"/>
<path d="M190.355 283.2V283.7H190.855V283.2H190.355ZM190.355 284.8H190.855V284.3H190.355V284.8ZM191.955 284.8V284.3H191.455V284.8H191.955ZM191.955 283.2H191.455V283.7H191.955V283.2ZM191.155 276.5C191.321 276.5 191.455 276.634 191.455 276.8H192.455C192.455 276.082 191.873 275.5 191.155 275.5V276.5ZM190.855 276.8C190.855 276.634 190.99 276.5 191.155 276.5V275.5C190.438 275.5 189.855 276.082 189.855 276.8H190.855ZM190.855 283.2V276.8H189.855V283.2H190.855ZM183.957 283.7H190.355V282.7H183.957V283.7ZM183.657 284C183.657 283.834 183.791 283.7 183.957 283.7V282.7C183.239 282.7 182.657 283.282 182.657 284H183.657ZM183.957 284.3C183.791 284.3 183.657 284.166 183.657 284H182.657C182.657 284.718 183.239 285.3 183.957 285.3V284.3ZM190.355 284.3H183.957V285.3H190.355V284.3ZM190.855 291.2V284.8H189.855V291.2H190.855ZM191.155 291.5C190.99 291.5 190.855 291.366 190.855 291.2H189.855C189.855 291.918 190.438 292.5 191.155 292.5V291.5ZM191.455 291.2C191.455 291.366 191.321 291.5 191.155 291.5V292.5C191.873 292.5 192.455 291.918 192.455 291.2H191.455ZM191.455 284.8V291.2H192.455V284.8H191.455ZM198.357 284.3H191.955V285.3H198.357V284.3ZM198.657 284C198.657 284.166 198.523 284.3 198.357 284.3V285.3C199.075 285.3 199.657 284.718 199.657 284H198.657ZM198.357 283.7C198.523 283.7 198.657 283.834 198.657 284H199.657C199.657 283.282 199.075 282.7 198.357 282.7V283.7ZM191.955 283.7H198.357V282.7H191.955V283.7ZM191.455 276.8V283.2H192.455V276.8H191.455Z" fill="white" mask="url(#path-45-outside-21_11287_24635)"/>
<mask id="path-47-outside-22_11287_24635" maskUnits="userSpaceOnUse" x="206.157" y="275" width="18" height="18" fill="black">
<rect fill="white" x="206.157" y="275" width="18" height="18"/>
<path fill-rule="evenodd" clip-rule="evenodd" d="M215.955 276.8C215.955 276.358 215.597 276 215.155 276C214.714 276 214.355 276.358 214.355 276.8V283.2H207.957C207.515 283.2 207.157 283.558 207.157 284C207.157 284.442 207.515 284.8 207.957 284.8H214.355V291.2C214.355 291.642 214.714 292 215.155 292C215.597 292 215.955 291.642 215.955 291.2V284.8H222.357C222.799 284.8 223.157 284.442 223.157 284C223.157 283.558 222.799 283.2 222.357 283.2H215.955V276.8Z"/>
</mask>
<path fill-rule="evenodd" clip-rule="evenodd" d="M215.955 276.8C215.955 276.358 215.597 276 215.155 276C214.714 276 214.355 276.358 214.355 276.8V283.2H207.957C207.515 283.2 207.157 283.558 207.157 284C207.157 284.442 207.515 284.8 207.957 284.8H214.355V291.2C214.355 291.642 214.714 292 215.155 292C215.597 292 215.955 291.642 215.955 291.2V284.8H222.357C222.799 284.8 223.157 284.442 223.157 284C223.157 283.558 222.799 283.2 222.357 283.2H215.955V276.8Z" fill="white"/>
<path d="M214.355 283.2V283.7H214.855V283.2H214.355ZM214.355 284.8H214.855V284.3H214.355V284.8ZM215.955 284.8V284.3H215.455V284.8H215.955ZM215.955 283.2H215.455V283.7H215.955V283.2ZM215.155 276.5C215.321 276.5 215.455 276.634 215.455 276.8H216.455C216.455 276.082 215.873 275.5 215.155 275.5V276.5ZM214.855 276.8C214.855 276.634 214.99 276.5 215.155 276.5V275.5C214.438 275.5 213.855 276.082 213.855 276.8H214.855ZM214.855 283.2V276.8H213.855V283.2H214.855ZM207.957 283.7H214.355V282.7H207.957V283.7ZM207.657 284C207.657 283.834 207.791 283.7 207.957 283.7V282.7C207.239 282.7 206.657 283.282 206.657 284H207.657ZM207.957 284.3C207.791 284.3 207.657 284.166 207.657 284H206.657C206.657 284.718 207.239 285.3 207.957 285.3V284.3ZM214.355 284.3H207.957V285.3H214.355V284.3ZM214.855 291.2V284.8H213.855V291.2H214.855ZM215.155 291.5C214.99 291.5 214.855 291.366 214.855 291.2H213.855C213.855 291.918 214.438 292.5 215.155 292.5V291.5ZM215.455 291.2C215.455 291.366 215.321 291.5 215.155 291.5V292.5C215.873 292.5 216.455 291.918 216.455 291.2H215.455ZM215.455 284.8V291.2H216.455V284.8H215.455ZM222.357 284.3H215.955V285.3H222.357V284.3ZM222.657 284C222.657 284.166 222.523 284.3 222.357 284.3V285.3C223.075 285.3 223.657 284.718 223.657 284H222.657ZM222.357 283.7C222.523 283.7 222.657 283.834 222.657 284H223.657C223.657 283.282 223.075 282.7 222.357 282.7V283.7ZM215.955 283.7H222.357V282.7H215.955V283.7ZM215.455 276.8V283.2H216.455V276.8H215.455Z" fill="white" mask="url(#path-47-outside-22_11287_24635)"/>
<mask id="path-49-outside-23_11287_24635" maskUnits="userSpaceOnUse" x="230.157" y="275" width="18" height="18" fill="black">
<rect fill="white" x="230.157" y="275" width="18" height="18"/>
<path fill-rule="evenodd" clip-rule="evenodd" d="M239.955 276.8C239.955 276.358 239.597 276 239.155 276C238.714 276 238.355 276.358 238.355 276.8V283.2H231.957C231.515 283.2 231.157 283.558 231.157 284C231.157 284.442 231.515 284.8 231.957 284.8H238.355V291.2C238.355 291.642 238.714 292 239.155 292C239.597 292 239.955 291.642 239.955 291.2V284.8H246.357C246.799 284.8 247.157 284.442 247.157 284C247.157 283.558 246.799 283.2 246.357 283.2H239.955V276.8Z"/>
</mask>
<path fill-rule="evenodd" clip-rule="evenodd" d="M239.955 276.8C239.955 276.358 239.597 276 239.155 276C238.714 276 238.355 276.358 238.355 276.8V283.2H231.957C231.515 283.2 231.157 283.558 231.157 284C231.157 284.442 231.515 284.8 231.957 284.8H238.355V291.2C238.355 291.642 238.714 292 239.155 292C239.597 292 239.955 291.642 239.955 291.2V284.8H246.357C246.799 284.8 247.157 284.442 247.157 284C247.157 283.558 246.799 283.2 246.357 283.2H239.955V276.8Z" fill="white"/>
<path d="M238.355 283.2V283.7H238.855V283.2H238.355ZM238.355 284.8H238.855V284.3H238.355V284.8ZM239.955 284.8V284.3H239.455V284.8H239.955ZM239.955 283.2H239.455V283.7H239.955V283.2ZM239.155 276.5C239.321 276.5 239.455 276.634 239.455 276.8H240.455C240.455 276.082 239.873 275.5 239.155 275.5V276.5ZM238.855 276.8C238.855 276.634 238.99 276.5 239.155 276.5V275.5C238.438 275.5 237.855 276.082 237.855 276.8H238.855ZM238.855 283.2V276.8H237.855V283.2H238.855ZM231.957 283.7H238.355V282.7H231.957V283.7ZM231.657 284C231.657 283.834 231.791 283.7 231.957 283.7V282.7C231.239 282.7 230.657 283.282 230.657 284H231.657ZM231.957 284.3C231.791 284.3 231.657 284.166 231.657 284H230.657C230.657 284.718 231.239 285.3 231.957 285.3V284.3ZM238.355 284.3H231.957V285.3H238.355V284.3ZM238.855 291.2V284.8H237.855V291.2H238.855ZM239.155 291.5C238.99 291.5 238.855 291.366 238.855 291.2H237.855C237.855 291.918 238.438 292.5 239.155 292.5V291.5ZM239.455 291.2C239.455 291.366 239.321 291.5 239.155 291.5V292.5C239.873 292.5 240.455 291.918 240.455 291.2H239.455ZM239.455 284.8V291.2H240.455V284.8H239.455ZM246.357 284.3H239.955V285.3H246.357V284.3ZM246.657 284C246.657 284.166 246.523 284.3 246.357 284.3V285.3C247.075 285.3 247.657 284.718 247.657 284H246.657ZM246.357 283.7C246.523 283.7 246.657 283.834 246.657 284H247.657C247.657 283.282 247.075 282.7 246.357 282.7V283.7ZM239.955 283.7H246.357V282.7H239.955V283.7ZM239.455 276.8V283.2H240.455V276.8H239.455Z" fill="white" mask="url(#path-49-outside-23_11287_24635)"/>
<mask id="path-51-outside-24_11287_24635" maskUnits="userSpaceOnUse" x="254.157" y="275" width="18" height="18" fill="black">
<rect fill="white" x="254.157" y="275" width="18" height="18"/>
<path fill-rule="evenodd" clip-rule="evenodd" d="M263.955 276.8C263.955 276.358 263.597 276 263.155 276C262.714 276 262.355 276.358 262.355 276.8V283.2H255.957C255.515 283.2 255.157 283.558 255.157 284C255.157 284.442 255.515 284.8 255.957 284.8H262.355V291.2C262.355 291.642 262.714 292 263.155 292C263.597 292 263.955 291.642 263.955 291.2V284.8H270.357C270.799 284.8 271.157 284.442 271.157 284C271.157 283.558 270.799 283.2 270.357 283.2H263.955V276.8Z"/>
</mask>
<path fill-rule="evenodd" clip-rule="evenodd" d="M263.955 276.8C263.955 276.358 263.597 276 263.155 276C262.714 276 262.355 276.358 262.355 276.8V283.2H255.957C255.515 283.2 255.157 283.558 255.157 284C255.157 284.442 255.515 284.8 255.957 284.8H262.355V291.2C262.355 291.642 262.714 292 263.155 292C263.597 292 263.955 291.642 263.955 291.2V284.8H270.357C270.799 284.8 271.157 284.442 271.157 284C271.157 283.558 270.799 283.2 270.357 283.2H263.955V276.8Z" fill="white"/>
<path d="M262.355 283.2V283.7H262.855V283.2H262.355ZM262.355 284.8H262.855V284.3H262.355V284.8ZM263.955 284.8V284.3H263.455V284.8H263.955ZM263.955 283.2H263.455V283.7H263.955V283.2ZM263.155 276.5C263.321 276.5 263.455 276.634 263.455 276.8H264.455C264.455 276.082 263.873 275.5 263.155 275.5V276.5ZM262.855 276.8C262.855 276.634 262.99 276.5 263.155 276.5V275.5C262.438 275.5 261.855 276.082 261.855 276.8H262.855ZM262.855 283.2V276.8H261.855V283.2H262.855ZM255.957 283.7H262.355V282.7H255.957V283.7ZM255.657 284C255.657 283.834 255.791 283.7 255.957 283.7V282.7C255.239 282.7 254.657 283.282 254.657 284H255.657ZM255.957 284.3C255.791 284.3 255.657 284.166 255.657 284H254.657C254.657 284.718 255.239 285.3 255.957 285.3V284.3ZM262.355 284.3H255.957V285.3H262.355V284.3ZM262.855 291.2V284.8H261.855V291.2H262.855ZM263.155 291.5C262.99 291.5 262.855 291.366 262.855 291.2H261.855C261.855 291.918 262.438 292.5 263.155 292.5V291.5ZM263.455 291.2C263.455 291.366 263.321 291.5 263.155 291.5V292.5C263.873 292.5 264.455 291.918 264.455 291.2H263.455ZM263.455 284.8V291.2H264.455V284.8H263.455ZM270.357 284.3H263.955V285.3H270.357V284.3ZM270.657 284C270.657 284.166 270.523 284.3 270.357 284.3V285.3C271.075 285.3 271.657 284.718 271.657 284H270.657ZM270.357 283.7C270.523 283.7 270.657 283.834 270.657 284H271.657C271.657 283.282 271.075 282.7 270.357 282.7V283.7ZM263.955 283.7H270.357V282.7H263.955V283.7ZM263.455 276.8V283.2H264.455V276.8H263.455Z" fill="white" mask="url(#path-51-outside-24_11287_24635)"/>
</g>
</g>
</g>
<defs>
<linearGradient id="paint0_linear_11287_24635" x1="315" y1="3.58441e-05" x2="2.5332e-06" y2="330" gradientUnits="userSpaceOnUse">
<stop stop-color="#5BC5FF"/>
<stop offset="1" stop-color="#8C88FF"/>
</linearGradient>
<clipPath id="clip0_11287_24635">
<rect width="315" height="330" rx="30" fill="white"/>
</clipPath>
<clipPath id="clip1_11287_24635">
<rect width="315" height="330" fill="white"/>
</clipPath>
</defs>
</svg>
